<svg width="64px" height="64px" viewBox="0 0 32 32" fill="none" xmlns="http://www.w3.org/2000/svg">
  <g stroke="#FFFFFF" stroke-width="2" stroke-linecap="round" stroke-linejoin="round">
    <path d="M16.9 14c-1.8 0-3.3 1.4-3.3 3.1v.7c0 1.1-.6 1.9-1.6 2.2h4.7c1.8 0 3.4-1.4 3.3-3.1 0-1.6-1.4-2.9-3.1-2.9"/>
    <path d="M20.3 11.5c-1.4-.3-2.8-.5-4.3-.5-7.2 0-13 4-13 9 0 1 .2 2 .7 2.9 1 2 3.6 2.6 5.4 1.3h0c2.4-1.7 5.8 0 5.8 3V29H16c7.2 0 13-4 13-9 0-2.2-1.1-4.2-2.9-5.7"/>
    <path d="m17.4 14.1 9.8-8.8c.4-.4 1.1-.4 1.5 0h0c.4.4.4 1 0 1.4L20 16"/>
  </g>
</svg>